<svg xmlns="http://www.w3.org/2000/svg" width="504" height="439.425" viewBox="0 0 504 439.425"><defs><style>.a{fill:#caddff;}.b{fill:#99b9ff;}.c{fill:#044d8c;}.d,.f,.g{fill:#fff;}.e{fill:#5479f7;}.f{font-size:21px;}.f,.g{font-family:Roboto-Medium, Roboto;font-weight:500;}.g{font-size:18px;}</style></defs><g transform="translate(-989 -672.362)"><g transform="translate(989 672.362)"><path class="a" d="M2627.422,200.389c-10.978,2.977-59.679,16.812-108.311,53.524-11.781,8.894-59.4,44.841-79.745,93.171-34.629,82.264,6.808,207.415,126.164,257.709,139.023,58.582,314.634-13.524,354.686-110.022,17.764-42.8,18.564-113.773-26.185-160.572-36.015-37.666-97.6-55.563-95.218-91.19,1.149-17.158,16.031-21.9,11.9-32.709C2800.925,184.67,2704.994,179.351,2627.422,200.389Z" transform="translate(-2427.564 -187.382)"/><g transform="translate(5.373 33.627)"><path class="b" d="M2925.929,623.136h-446.6c-4.39,0-7.949-3.041-7.949-6.792v-193.1c0-6.424,6.095-11.632,13.613-11.632h432.621c7.657,0,13.864,5.3,13.864,11.845V618.394C2931.479,621.013,2928.994,623.136,2925.929,623.136Z" transform="translate(-2453.684 -327.176)"/><g transform="translate(407.509 170.79)"><rect class="a" width="23.575" height="34.284" rx="3.187"/><rect class="a" width="23.575" height="34.284" rx="3.509" transform="translate(27.657)"/><rect class="a" width="23.575" height="34.284" rx="2.277" transform="translate(0.001 38.093)"/><rect class="a" width="23.575" height="34.284" rx="3.599" transform="translate(27.657 38.093)"/></g><path class="c" d="M2611.592,361.977l-170.564-.852a3.27,3.27,0,0,1-2.948-4.651l50.125-68.32a5.73,5.73,0,0,1,4.733-2.346c20.081.394,162.089,0,162.089,0Z" transform="translate(-2437.77 -266.247)"/><path class="c" d="M2909.51,360.864l170.565-.853a3.27,3.27,0,0,0,2.948-4.651L3032.9,287.04a5.731,5.731,0,0,0-4.733-2.346c-20.081.394-170.925,0-170.925,0Z" transform="translate(-2584.994 -265.72)"/><g transform="translate(31.729 170.205)"><rect class="a" width="23.575" height="34.284" rx="3.187" transform="translate(27.657)"/><rect class="a" width="23.575" height="34.284" rx="3.509" transform="translate(0.001)"/><rect class="a" width="23.575" height="34.284" rx="2.277" transform="translate(27.657 38.093)"/><rect class="a" width="23.575" height="34.284" rx="3.599" transform="translate(0 38.093)"/></g><g transform="translate(119.95)"><path class="d" d="M2624.775,554.457l-1.184-215.513,114.553-58.355,112.254,60.42.868,217.8c-.066,2.949-8.157,4.315-10.872,4.289l-209.547-1.988A6.415,6.415,0,0,1,2624.775,554.457Z" transform="translate(-2613.388 -265.14)"/><path class="b" d="M2703.266,814.186h-.024l-68.976-2.106a.79.79,0,0,1,.049-1.579l68.975,2.106a.79.79,0,0,1-.023,1.579Z" transform="translate(-2618.079 -516.037)"/><path class="b" d="M2972.4,817.53h0l-52.142-.055a.79.79,0,0,1,0-1.58h0l52.142.055a.79.79,0,0,1,0,1.58Z" transform="translate(-2753.478 -518.592)"/><g transform="translate(170.457 170.298)"><g transform="translate(27.657)"><rect class="a" width="23.575" height="34.232" rx="3.187"/></g><g transform="translate(0.001)"><rect class="a" width="23.575" height="34.232" rx="3.509"/></g><g transform="translate(27.657 38.035)"><rect class="a" width="23.575" height="34.232" rx="2.277"/></g><g transform="translate(0 38.035)"><rect class="a" width="23.575" height="34.232" rx="3.599"/></g></g><g transform="translate(97.344 63.928)"><g transform="translate(27.657)"><rect class="a" width="23.575" height="27.7" rx="3.187"/></g><g transform="translate(0.001)"><rect class="a" width="23.575" height="27.7" rx="3.509"/></g><g transform="translate(27.657 30.778)"><rect class="a" width="23.575" height="27.7" rx="2.277"/></g><g transform="translate(0 30.778)"><rect class="a" width="23.575" height="27.7" rx="3.599"/></g></g><g transform="translate(25.481 170.187)"><g transform="translate(27.657)"><rect class="a" width="23.575" height="34.284" rx="3.187"/></g><g transform="translate(0.001)"><rect class="a" width="23.575" height="34.284" rx="3.509"/></g><g transform="translate(27.657 38.093)"><rect class="a" width="23.575" height="34.284" rx="2.277"/></g><g transform="translate(0 38.093)"><rect class="a" width="23.575" height="34.284" rx="3.599"/></g></g><path class="c" d="M2731.242,253.243l120.313,64.211c2.552,1.362,3.035,4.129,1.042,5.966l-10.114,9.325-112.118-57.551a2.646,2.646,0,0,0-2.327-.007l-114.312,57.681-6.544-7.8c-2.691-3.207-1.585-7.491,2.493-9.65l117.487-62.184A4.492,4.492,0,0,1,2731.242,253.243Z" transform="translate(-2604.923 -251.959)"/><path d="M2613.017,332.946a.79.79,0,0,1-.606-.282l-6.544-7.8a6.57,6.57,0,0,1-1.537-5.547,7.906,7.906,0,0,1,4.266-5.308l117.486-62.184a5.27,5.27,0,0,1,4.822.007l120.313,64.211a4.8,4.8,0,0,1,2.659,3.546,4.29,4.29,0,0,1-1.454,3.7l-10.114,9.325a.789.789,0,0,1-.9.122l-112.119-57.551a1.856,1.856,0,0,0-1.611,0l-114.312,57.681A.788.788,0,0,1,2613.017,332.946Zm115.469-80.118a3.582,3.582,0,0,0-1.665.4l-117.487,62.184a6.347,6.347,0,0,0-3.454,4.215,5.022,5.022,0,0,0,1.2,4.229l6.142,7.318,113.754-57.4a3.46,3.46,0,0,1,3.044.009l111.627,57.3,9.709-8.951a2.7,2.7,0,0,0,.957-2.336,3.248,3.248,0,0,0-1.835-2.353L2730.16,253.228A3.576,3.576,0,0,0,2728.486,252.828Z" transform="translate(-2604.212 -251.247)"/><g transform="translate(82.721 167.101)"><rect class="d" width="62.81" height="129.512" rx="6" transform="translate(9.395)"/><rect class="b" width="56.16" height="121.327" rx="4" transform="translate(12.596 3.61)"/><rect class="b" width="81.331" height="11.293" rx="2.832" transform="translate(0 120.697)"/><path d="M2800.769,818.575a.79.79,0,0,1-.007-1.58l52.927-.495a.8.8,0,0,1,.8.782.79.79,0,0,1-.782.8l-52.928.495Z" transform="translate(-2779.623 -685.978)"/><path d="M2830.286,798.031h0l-32.254-.054a.79.79,0,0,1,0-1.58h0l32.254.054a.79.79,0,0,1,0,1.58Z" transform="translate(-2778.327 -676.461)"/><g transform="translate(21.567 17.771)"><path class="a" d="M2805.881,627.35a.79.79,0,0,1-.428-1.454l36.417-23.41a.79.79,0,1,1,.855,1.328l-36.417,23.41A.782.782,0,0,1,2805.881,627.35Z" transform="translate(-2803.61 -602.36)"/><path class="a" d="M2803.069,658.484a.79.79,0,0,1-.428-1.454l33.876-21.777a.79.79,0,0,1,.854,1.329L2803.5,658.358A.786.786,0,0,1,2803.069,658.484Z" transform="translate(-2802.278 -617.875)"/></g><path d="M2871.473,687.188h0a.789.789,0,0,1-.786-.793l.474-109.543a1.309,1.309,0,0,0-1.308-1.3h-19.3a.79.79,0,1,1,0-1.58h19.3a2.891,2.891,0,0,1,2.888,2.888l-.474,109.547A.79.79,0,0,1,2871.473,687.188Z" transform="translate(-2803.192 -571.146)"/></g><path class="b" d="M2633.623,519.1a.79.79,0,0,1,0-1.58l215.527-.351h0a.79.79,0,0,1,0,1.58l-215.527.351Z" transform="translate(-2617.763 -377.152)"/></g></g><g transform="translate(42.558 18.666)"><g transform="translate(0 2.234)"><g transform="translate(31.103)"><path d="M2582.154,232.491a.792.792,0,0,1-.742-1.062l1.4-3.836a.79.79,0,0,1,1.484.542l-1.4,3.836A.791.791,0,0,1,2582.154,232.491Z" transform="translate(-2574.045 -227.075)"/><path d="M2575.949,249.464a.79.79,0,0,1-.742-1.061l1.4-3.836a.79.79,0,0,1,1.484.542l-1.4,3.836A.79.79,0,0,1,2575.949,249.464Z" transform="translate(-2571.107 -235.111)"/><path d="M2572.09,237.752a.785.785,0,0,1-.272-.048l-3.836-1.4a.79.79,0,0,1,.543-1.484l3.836,1.4a.79.79,0,0,1-.272,1.532Z" transform="translate(-2567.464 -230.718)"/><path d="M2589.063,243.958a.8.8,0,0,1-.272-.048l-3.836-1.4a.79.79,0,1,1,.543-1.483l3.836,1.4a.79.79,0,0,1-.271,1.532Z" transform="translate(-2575.5 -233.656)"/></g><path d="M2514.7,262.48a6.223,6.223,0,0,1-4.134-1.563,6.379,6.379,0,0,1-2.16-4.465,6.542,6.542,0,0,1,6-6.9,6.239,6.239,0,0,1,4.594,1.547,6.379,6.379,0,0,1,2.16,4.464,6.542,6.542,0,0,1-6,6.9C2515,262.474,2514.849,262.48,2514.7,262.48Zm.16-11.367q-.172,0-.344.013a4.955,4.955,0,0,0-4.533,5.236,4.808,4.808,0,0,0,1.625,3.368,4.663,4.663,0,0,0,3.438,1.157,4.955,4.955,0,0,0,4.534-5.237,4.811,4.811,0,0,0-1.625-3.368A4.662,4.662,0,0,0,2514.857,251.114Z" transform="translate(-2508.392 -237.708)"/></g><g transform="translate(391.81)"><g transform="translate(28.847)"><path d="M3193.809,228.5a.789.789,0,0,1-.79-.79v-4.084a.79.79,0,0,1,1.58,0v4.084A.79.79,0,0,1,3193.809,228.5Z" transform="translate(-3186.219 -222.832)"/><path d="M3193.809,246.567a.79.79,0,0,1-.79-.79v-4.085a.79.79,0,0,1,1.58,0v4.085A.79.79,0,0,1,3193.809,246.567Z" transform="translate(-3186.219 -231.388)"/><path d="M3184.978,237.326h-4.084a.79.79,0,0,1,0-1.58h4.084a.79.79,0,1,1,0,1.58Z" transform="translate(-3180.104 -228.946)"/><path d="M3203.05,237.326h-4.085a.79.79,0,0,1,0-1.58h4.085a.79.79,0,1,1,0,1.58Z" transform="translate(-3188.66 -228.946)"/></g><path d="M3131.58,243.751a6.166,6.166,0,0,1-2.236-.422,6.265,6.265,0,0,1-3.5-3.391,6.428,6.428,0,0,1,3.206-8.392,6.123,6.123,0,0,1,4.761-.123,6.264,6.264,0,0,1,3.5,3.391,6.426,6.426,0,0,1-3.2,8.392A6.153,6.153,0,0,1,3131.58,243.751Zm0-11.171a4.584,4.584,0,0,0-1.879.406h0a4.842,4.842,0,0,0-2.4,6.325,4.7,4.7,0,0,0,2.622,2.545,4.552,4.552,0,0,0,3.542-.092,4.841,4.841,0,0,0,2.4-6.325,4.7,4.7,0,0,0-2.622-2.545A4.581,4.581,0,0,0,3131.576,232.58Zm-2.2-.314h0Z" transform="translate(-3125.317 -226.699)"/><path d="M3207.314,305.461a4.331,4.331,0,0,1-1.57-.3,4.39,4.39,0,0,1-2.453-2.377,4.5,4.5,0,0,1,2.248-5.878,4.3,4.3,0,0,1,3.343-.086,4.388,4.388,0,0,1,2.453,2.377,4.5,4.5,0,0,1-2.247,5.878A4.318,4.318,0,0,1,3207.314,305.461Zm0-7.355a2.746,2.746,0,0,0-1.127.243,2.917,2.917,0,0,0-1.444,3.812,2.825,2.825,0,0,0,1.576,1.531,2.732,2.732,0,0,0,2.124-.055,2.917,2.917,0,0,0,1.444-3.812,2.825,2.825,0,0,0-1.576-1.531A2.749,2.749,0,0,0,3207.312,298.107Z" transform="translate(-3162.06 -257.724)"/></g><g transform="translate(232.656 358.087)"><path d="M2867.231,936.161a.79.79,0,0,1-.137-1.568,213.736,213.736,0,0,0,86.444-36.348.79.79,0,0,1,.919,1.285,215.321,215.321,0,0,1-87.087,36.618A.781.781,0,0,1,2867.231,936.161Z" transform="translate(-2866.442 -898.099)"/><path d="M2951.655,964.19a.79.79,0,0,1-.282-1.528,213.385,213.385,0,0,0,34.541-16.93.79.79,0,0,1,.821,1.349,214.911,214.911,0,0,1-34.8,17.055A.783.783,0,0,1,2951.655,964.19Z" transform="translate(-2906.414 -920.597)"/></g></g><g transform="translate(332.581 234.567)"><g transform="translate(29.719 19.323)"><path class="e" d="M2989.943,666.255v0Z" transform="translate(-2989.153 -665.465)"/><path d="M2989.233,676.568a.79.79,0,0,1-.79-.79V665.545a.79.79,0,1,1,1.579,0v10.233A.79.79,0,0,1,2989.233,676.568Z" transform="translate(-2988.443 -664.755)"/></g><g transform="translate(115.275 19.323)"><path class="e" d="M3152.433,666.255v0Z" transform="translate(-3151.643 -665.465)"/><path d="M3151.723,676.568a.79.79,0,0,1-.79-.79V665.545a.79.79,0,1,1,1.58,0v10.233A.79.79,0,0,1,3151.723,676.568Z" transform="translate(-3150.933 -664.755)"/></g><rect class="c" width="11.349" height="204.858" rx="5.675" transform="translate(145.319)"/><rect class="c" width="168.845" height="11.349" rx="5.675" transform="translate(0 11.242)"/><g transform="translate(10.772 29.556)"><path class="c" d="M2956.831,772.413a3.079,3.079,0,0,1-2.872-3.245V688.935a3.079,3.079,0,0,1,2.872-3.244h117.981a3.079,3.079,0,0,1,2.873,3.244v80.233a3.079,3.079,0,0,1-2.873,3.245Z" transform="translate(-2953.396 -684.737)"/><path d="M3074.1,772.492H2956.12a3.866,3.866,0,0,1-3.661-4.035V688.224a3.866,3.866,0,0,1,3.661-4.034H3074.1a3.866,3.866,0,0,1,3.662,4.034v80.233A3.866,3.866,0,0,1,3074.1,772.492ZM2956.12,685.77a2.294,2.294,0,0,0-2.082,2.455v80.233a2.294,2.294,0,0,0,2.082,2.455H3074.1a2.294,2.294,0,0,0,2.082-2.455V688.224a2.293,2.293,0,0,0-2.082-2.455Z" transform="translate(-2952.459 -684.19)"/></g></g><g transform="translate(118.49 181.525)"><g transform="translate(23 95.74)"><g transform="translate(0 128.149)"><g transform="translate(6.628)"><path class="d" d="M2679.437,954.034l-1.691,16.212-6.667-.119-.281-15.974Z" transform="translate(-2670.007 -953.244)"/><path d="M2677.035,970.326h-.014l-6.666-.12a.79.79,0,0,1-.776-.776l-.282-15.974a.79.79,0,0,1,.779-.8l8.64-.119a.79.79,0,0,1,.8.872l-1.692,16.212A.789.789,0,0,1,2677.035,970.326Zm-5.89-1.685,5.18.093,1.524-14.608-6.959.1Z" transform="translate(-2669.297 -952.533)"/></g><g transform="translate(0 12.405)"><path class="d" d="M2671.342,996.958a40.763,40.763,0,0,1-10.986-.364,2.56,2.56,0,0,1-2.054-3.214c1.157-4.076,3.052-12.019,6.189-15.533l1.282,2.207.935-1.97a.919.919,0,0,1,.7-.438l2.438-.051a.916.916,0,0,1,.989.747l.3,1.711,2.266-2.224.219,16.335A2.559,2.559,0,0,1,2671.342,996.958Z" transform="translate(-2657.417 -976.802)"/><path d="M2666.505,997.251a41.658,41.658,0,0,1-6.99-.589,3.384,3.384,0,0,1-2.294-1.526,3.331,3.331,0,0,1-.387-2.681c.134-.471.278-.995.432-1.557,1.207-4.4,3.031-11.042,5.927-14.286a.79.79,0,0,1,1.272.13l.529.91.292-.616a.758.758,0,0,1,.038-.07,1.714,1.714,0,0,1,1.3-.815l.056,0,2.414-.05a1.719,1.719,0,0,1,1.807,1.4l.042.237,1.2-1.175a.79.79,0,0,1,1.343.553l.219,16.3a3.358,3.358,0,0,1-2.989,3.62h0A40.007,40.007,0,0,1,2666.505,997.251Zm4.127-1h0Zm-6.95-17.71c-2.271,3.225-3.83,8.9-4.894,12.778-.155.567-.3,1.095-.435,1.57a1.721,1.721,0,0,0,.2,1.407,1.8,1.8,0,0,0,1.223.812,39.846,39.846,0,0,0,10.769.357,1.775,1.775,0,0,0,1.582-1.929.562.562,0,0,1,0-.067l-.195-14.487-.947.93a.789.789,0,0,1-1.33-.425l-.3-1.712a.129.129,0,0,0-.139-.1l-.056,0-2.4.05a.123.123,0,0,0-.07.041l-.91,1.918a.791.791,0,0,1-.681.45.777.777,0,0,1-.716-.392Z" transform="translate(-2656.708 -976.092)"/><path d="M2667.949,1009.147a22.053,22.053,0,0,1-5.557-.718.79.79,0,0,1,.4-1.528,18.757,18.757,0,0,0,9.655.094.79.79,0,0,1,.492,1.5A17.279,17.279,0,0,1,2667.949,1009.147Z" transform="translate(-2659.12 -990.667)"/><path d="M2673.087,997.53h-5.419a.79.79,0,0,1,0-1.58h5.419a.79.79,0,0,1,0,1.58Z" transform="translate(-2661.524 -985.494)"/></g></g><g transform="translate(56.671 128)"><g transform="translate(1.468)"><path class="d" d="M2768.629,955.35l2.1,18.93,8.035,1.667-.489-22.2Z" transform="translate(-2767.839 -952.961)"/><path d="M2778.056,976.027a.787.787,0,0,1-.161-.016l-8.035-1.668a.79.79,0,0,1-.625-.686l-2.1-18.93a.79.79,0,0,1,.656-.867l9.648-1.6a.79.79,0,0,1,.918.762l.489,22.2a.79.79,0,0,1-.79.807Zm-7.313-3.114,6.5,1.349-.448-20.293-8.011,1.327Z" transform="translate(-2767.129 -952.25)"/></g><g transform="translate(0 17.055)"><path class="d" d="M2765.882,997.651c-.133-2.895-.073-8.4,1.987-11.379l6.428,2.268v-1.361a.8.8,0,0,1,.719-.822l3.585-.2a7.851,7.851,0,0,1,3.893.794c3.767,1.836,11.837,6.211,13.548,10.749a1.653,1.653,0,0,1-1.366,2.189c-3.2.429-11.293,1.069-26.8-.188A2.159,2.159,0,0,1,2765.882,997.651Z" transform="translate(-2765.05 -985.351)"/><path d="M2783.5,1000.516c-4.194,0-9.586-.19-16.4-.742a2.954,2.954,0,0,1-2.714-2.8h0c-.142-3.08-.053-8.717,2.126-11.864a.79.79,0,0,1,.912-.295l5.375,1.9v-.245a1.586,1.586,0,0,1,1.463-1.611l3.584-.2a8.689,8.689,0,0,1,4.284.872c4.45,2.168,12.178,6.5,13.941,11.18a2.369,2.369,0,0,1-.19,2.06,2.48,2.48,0,0,1-1.81,1.191A81.471,81.471,0,0,1,2783.5,1000.516Zm-16-14c-1.668,2.99-1.634,8.2-1.534,10.387h0a1.372,1.372,0,0,0,1.264,1.294c15.217,1.234,23.22.651,26.635.193a.908.908,0,0,0,.664-.435.791.791,0,0,0,.068-.693c-1.63-4.321-9.743-8.654-13.156-10.317a7.091,7.091,0,0,0-3.5-.715l-3.584.2.027,1.395a.79.79,0,0,1-1.053.745Z" transform="translate(-2764.34 -984.642)"/><path d="M2784.167,1006.686a121.42,121.42,0,0,1-13.81-.8.79.79,0,0,1,.18-1.569,103.087,103.087,0,0,0,23.052.323.79.79,0,0,1,.215,1.565A80.335,80.335,0,0,1,2784.167,1006.686Z" transform="translate(-2766.857 -993.953)"/><path d="M2795.206,994.949a.787.787,0,0,1-.458-.146l-6.188-4.411a.79.79,0,0,1,.918-1.286l6.188,4.411a.79.79,0,0,1-.46,1.433Z" transform="translate(-2775.651 -986.686)"/></g></g><g transform="translate(3.733)"><path d="M2721.5,716.712s11.986,79.3,9.532,131.558l-12.817.329s-14.235-80.186-21.093-93.369c0,0-19.146,73.467-19.864,92.593l-11.6-.353s-1.763-40.632-1.852-52.626c-.254-34.329,3.056-49.922,4.871-57.32,1.666-6.792,3.455-12.312,4.761-16.047l4.361-12.328Z" transform="translate(-2663.799 -709.149)"/><path class="a" d="M2726.05,790.682a.811.811,0,0,1-.192-.023.79.79,0,0,1-.574-.958l2.173-8.711a6.958,6.958,0,0,1,5.321-5.055l1.378-.293a.79.79,0,0,1,.328,1.545l-1.379.293a5.384,5.384,0,0,0-4.119,3.9l-2.17,8.7A.79.79,0,0,1,2726.05,790.682Z" transform="translate(-2692.899 -740.623)"/></g></g><g transform="translate(0 0.324)"><path d="M2717.933,735.577s21.619-1.534,19.741-13.1-16.7-18.723-27.152-20.606-43.515,9.792-29.643,21.844S2717.933,735.577,2717.933,735.577Z" transform="translate(-2643.567 -610.191)"/><g transform="translate(108.306)"><g transform="translate(7.21)"><path class="d" d="M2837,541.514s1.556-8.717,2.108-11.055c.627-2.66-3.558-.222-5.078,8Z" transform="translate(-2833.182 -528.641)"/><path d="M2836.744,542.46,2832.417,538l.075-.4c1.01-5.469,3.345-9.021,5.029-9.588a1.245,1.245,0,0,1,1.27.212,1.659,1.659,0,0,1,.324,1.7c-.541,2.29-2.084,10.925-2.1,11.012Zm-2.622-4.969,1.611,1.66c.448-2.474,1.331-7.285,1.775-9.278C2836.614,530.717,2835.005,533.071,2834.122,537.49Z" transform="translate(-2832.417 -527.932)"/></g><g transform="translate(0 7.193)"><path class="d" d="M2830.158,546.682c.231.243.465.484.71.711a3.318,3.318,0,0,1,1.21,2.554c-.125,1.143-1.923,5.1-2.786,6.95a5.077,5.077,0,0,0-.478,2.012c-.027.962.463,6.694.463,6.694l-7.043.432a33.764,33.764,0,0,0,.564-5.36c.279-4.382-.476-2.506-1.992-6.905s.253-8.363,1.12-8.845,2.242.841,2.242.841.71-2.594,2.271-2.67c.818-.04,1.026.782,1.565,1.32Z" transform="translate(-2819.429 -542.304)"/><path d="M2820.459,566.181l.312-1.077a35.566,35.566,0,0,0,.534-5.189c.154-2.421,0-2.671-.464-3.411a13.736,13.736,0,0,1-1.486-3.187c-1.614-4.683.238-9.1,1.484-9.793a2.256,2.256,0,0,1,2.262.264,3.337,3.337,0,0,1,2.6-2.191,2.072,2.072,0,0,1,1.823,1.118,3.414,3.414,0,0,0,.338.432l2.169,2.281c.219.231.44.459.674.676a4.092,4.092,0,0,1,1.458,3.219c-.128,1.165-1.624,4.557-2.855,7.2a4.265,4.265,0,0,0-.4,1.7c-.021.752.326,5.023.462,6.6l.069.806Zm1.2-21.289a.128.128,0,0,0-.058.012c-.545.385-2.142,3.877-.757,7.9a12.269,12.269,0,0,0,1.333,2.865c.659,1.056.878,1.562.7,4.348-.144,2.267-.291,3.645-.4,4.46l5.24-.321c-.138-1.655-.421-5.189-.4-5.977a5.842,5.842,0,0,1,.552-2.324,40.39,40.39,0,0,0,2.717-6.7,2.64,2.64,0,0,0-.96-1.888c-.259-.239-.5-.491-.747-.746h0l-2.154-2.267a4.67,4.67,0,0,1-.5-.627c-.3-.42-.359-.454-.454-.449-.74.036-1.373,1.45-1.548,2.09l-.351,1.283-.958-.923A2.655,2.655,0,0,0,2821.663,544.893Z" transform="translate(-2818.724 -541.594)"/></g><path d="M2829.538,555.93a3.926,3.926,0,0,1-2.933-1.7c-1.994-2.444-.706-7.107-.65-7.3a.79.79,0,0,1,1.52.43c-.317,1.126-.87,4.377.354,5.877.78.956,1.541,1.233,1.914,1.085.216-.085.245-.332.232-.525a3.386,3.386,0,0,0-.835-2,.79.79,0,0,1,1.106-1.127,4.937,4.937,0,0,1,1.305,3.026,2.009,2.009,0,0,1-1.229,2.1A2.137,2.137,0,0,1,2829.538,555.93Z" transform="translate(-2821.93 -536.654)"/></g><path class="c" d="M2664.072,600.138c-8,6.191-23.245,22.284-24.135,41.378a2.022,2.022,0,0,0,1.079,1.886h0a12.153,12.153,0,0,0,11.949-.366l4.529-2.75s-6.213,22.062-5.789,25.607,11.315,9.578,24.936,4.629,39.25-6.347,43.363,2.036l-3.177-29.255,23.832-4.084s-6.3-23.673-22.74-38.3C2706.719,590.954,2675.934,590.954,2664.072,600.138Z" transform="translate(-2625.767 -558.903)"/><path class="c" d="M2812.469,582.284l-11.875-.4s-3.56,31.7-8.091,36.424-13.361,10.771-13.361,10.771,2.579,17.5,18.678,16.49C2823.48,643.963,2812.469,582.284,2812.469,582.284Z" transform="translate(-2691.677 -553.476)"/><g transform="translate(0 57.013)"><g transform="translate(0.844)"><path class="d" d="M2617.537,637.713h29.145a2.065,2.065,0,0,1,1.944,1.707l6.615,40.464a1.4,1.4,0,0,1-1.385,1.708H2624.71a2.066,2.066,0,0,1-1.944-1.708l-6.614-40.464A1.4,1.4,0,0,1,2617.537,637.713Z" transform="translate(-2615.339 -636.923)"/><path d="M2653.145,681.671H2624a2.848,2.848,0,0,1-2.723-2.369l-6.615-40.464a2.3,2.3,0,0,1,.487-1.869,2.16,2.16,0,0,1,1.678-.755h29.144a2.849,2.849,0,0,1,2.724,2.369l6.615,40.464a2.3,2.3,0,0,1-.487,1.87A2.16,2.16,0,0,1,2653.145,681.671Zm-36.317-43.878a.6.6,0,0,0-.475.2.719.719,0,0,0-.131.591l6.615,40.464a1.286,1.286,0,0,0,1.164,1.045h29.145a.6.6,0,0,0,.474-.2.717.717,0,0,0,.132-.591l-6.615-40.464a1.285,1.285,0,0,0-1.165-1.045Z" transform="translate(-2614.629 -636.213)"/></g><g transform="translate(0 17.373)"><path class="d" d="M2617.958,670.712l.689,4.053,10.939-1.9a2.89,2.89,0,0,1,3.362,2.484,3.934,3.934,0,0,1-1.736,3.754c-1.816,1.349-7.42,3.363-11.927,4.193-5.044.928-5.417-6.37-4.17-10.016C2616.087,670.436,2617.958,670.712,2617.958,670.712Z" transform="translate(-2613.729 -669.917)"/><path d="M2617.74,683.457a3.965,3.965,0,0,1-3.109-1.409c-2.1-2.434-1.817-7.247-.966-9.733,1.172-3.427,3.6-3.107,3.7-3.092a.789.789,0,0,1,.664.649l.557,3.271,10.158-1.764a3.772,3.772,0,0,1,2.885.718,3.547,3.547,0,0,1,1.4,2.459,4.733,4.733,0,0,1-2.051,4.472c-1.982,1.473-7.708,3.5-12.255,4.336A5.419,5.419,0,0,1,2617.74,683.457Zm-1.134-12.553a2.957,2.957,0,0,0-1.447,1.922c-.859,2.512-.8,6.493.669,8.191a2.567,2.567,0,0,0,2.611.793c4.6-.847,10.014-2.873,11.6-4.05a3.152,3.152,0,0,0,1.423-3.035,1.979,1.979,0,0,0-.784-1.372,2.181,2.181,0,0,0-1.666-.416l-10.931,1.9a.789.789,0,0,1-.914-.646Z" transform="translate(-2613.026 -669.208)"/></g></g><path class="b" d="M2758.232,649.679a3.016,3.016,0,0,1-1.064-.194l-3.333-1.258a2.992,2.992,0,0,1-1.931-2.781v-8.012a1.594,1.594,0,0,1,1.6-1.588h3.547a.79.79,0,0,1,0,1.58H2753.5l-.016,8.02a1.4,1.4,0,0,0,.909,1.3l3.333,1.258a1.435,1.435,0,0,0,1.009,0l3.72-1.393a1.4,1.4,0,0,0,.913-1.3v-7.877l-3.251-.008a.79.79,0,0,1,0-1.58h3.236a1.594,1.594,0,0,1,1.6,1.588v7.877a2.99,2.99,0,0,1-1.939,2.784l-3.72,1.393A3.022,3.022,0,0,1,2758.232,649.679Z" transform="translate(-2678.781 -579.026)"/><path class="a" d="M2777.8,752.823a.789.789,0,0,1-.781-.683l-1.175-8.591a.79.79,0,0,1,1.565-.214l1.175,8.592a.79.79,0,0,1-.676.889A.752.752,0,0,1,2777.8,752.823Z" transform="translate(-2690.111 -629.595)"/></g><g transform="translate(49.009 0)"><g transform="translate(5.894 17.186)"><path class="d" d="M2735.707,564.043l1.428,14.613a3.7,3.7,0,0,0,2.756,3.123l1.767.456a1.055,1.055,0,0,1,.255,1.946,20.823,20.823,0,0,1-22.622-.887h0a1.221,1.221,0,0,1,.477-2.17l2.49-.551a3.7,3.7,0,0,0,2.852-2.945l.577-16.17Z" transform="translate(-2718.011 -560.667)"/><path d="M2730.4,587.17a21.519,21.519,0,0,1-12.258-3.932,2.01,2.01,0,0,1,.75-3.6l2.49-.551a2.909,2.909,0,0,0,2.236-2.263l.576-16.11a.789.789,0,0,1,.986-.737l10.019,2.587a.789.789,0,0,1,.589.688l1.427,14.612a2.891,2.891,0,0,0,2.168,2.436l1.768.456a1.845,1.845,0,0,1,.444,3.4A23.278,23.278,0,0,1,2730.4,587.17Zm-4.664-25.413-.543,15.188a.881.881,0,0,1-.012.113,4.484,4.484,0,0,1-3.459,3.576l-2.489.551a.424.424,0,0,0-.337.334.416.416,0,0,0,.164.434,19.9,19.9,0,0,0,21.759.83.265.265,0,0,0-.064-.493l-1.769-.456a4.465,4.465,0,0,1-3.342-3.792l-1.376-14.082Z" transform="translate(-2717.3 -559.956)"/></g><path d="M2710.781,530.061c3.223-.739-.311,3.27,11.139-2.254,4.56-2.2,3.066,3.747,4.25,3.18,4.375-2.1,5.575-2.623,7.916-2.421,1.55.134,5.182,2.505,5.024,4.572-.517,6.744-3.709,5.527-4.733,11.507-.72,4.2-1.641,5.6-3.15,6.449-1.525.861-3.087-1.09-4.824-.275-2.248,1.056-1.1,5.016-3.117,7.082-1.27,1.3-4.555,2.366-10.39.685a2.025,2.025,0,0,1-1.458-2.155c.131-1.25.3-2.829.6-4.324,1.4-7.125,3.552-9.05,2.387-10.636-1.785-2.43-6.611-.042-7.819-2.081C2705.349,537.273,2706.368,531.073,2710.781,530.061Z" transform="translate(-2706.106 -527.317)"/><g transform="translate(3.827 9.459)"><path class="d" d="M2728.229,548.885l-.643,1.878a20.35,20.35,0,0,0-.72,2.7c-.332,1.72-1.018,4.651-1.385,6.3-1.177,5.313-8.274.9-8.274.9l-.66-1.3-.887-.194a1.009,1.009,0,0,1-.467-.228.957.957,0,0,1-.229-1.115c.936-2.025,2.841-6.539,3.157-10.354A10.67,10.67,0,0,1,2728.229,548.885Z" transform="translate(-2714.086 -546)"/><path d="M2721.611,562.465a12.2,12.2,0,0,1-5.532-1.839.788.788,0,0,1-.287-.312l-.49-.962-.522-.114a1.806,1.806,0,0,1-.828-.415,1.745,1.745,0,0,1-.415-2.031c.824-1.784,2.776-6.338,3.086-10.088a.79.79,0,0,1,.466-.657,11.376,11.376,0,0,1,10.891,1.479.789.789,0,0,1,.283.894l-.642,1.878a19.547,19.547,0,0,0-.692,2.6c-.243,1.256-.677,3.174-1.026,4.715-.136.6-.262,1.153-.363,1.61a3.821,3.821,0,0,1-2.212,2.922A4.4,4.4,0,0,1,2721.611,562.465Zm-4.515-3.07c1.172.682,3.988,1.983,5.622,1.294a2.311,2.311,0,0,0,1.28-1.808c.1-.458.227-1.015.365-1.617.346-1.53.778-3.434,1.016-4.666a20.993,20.993,0,0,1,.748-2.811l.448-1.312a9.83,9.83,0,0,0-8.427-1.141,36.473,36.473,0,0,1-3.178,10.119.168.168,0,0,0,.044.2.261.261,0,0,0,.1.041l.887.194a.788.788,0,0,1,.535.413Z" transform="translate(-2713.375 -545.282)"/></g><path class="d" d="M2739.654,559.373s1.538-4.518,3.453-3.393.1,6.056-3.453,3.393Z" transform="translate(-2721.99 -540.803)"/><g transform="translate(2.962 13.953)"><path d="M2721.157,561.522a2.133,2.133,0,0,1-1.229-.376c-.8-.548-1.269-1.621-1.449-3.283-.055-.5-.221-2.037.9-2.756h0a2.281,2.281,0,0,1,1.76-.33,1.8,1.8,0,0,1,1.147.8,5.437,5.437,0,0,1,.672,4.709,1.788,1.788,0,0,1-1.116,1.147A2.691,2.691,0,0,1,2721.157,561.522Zm.185-1.576Zm-.689-3.646a.776.776,0,0,0-.421.136h0c-.186.12-.255.589-.182,1.256.171,1.58.6,2.031.775,2.153a.65.65,0,0,0,.545.074c.24-.278.667-1.687-.44-3.534A.407.407,0,0,0,2720.653,556.3Zm-.848-.529h0Z" transform="translate(-2714.906 -554.244)"/><path d="M2722,555.847a.79.79,0,0,1-.034-1.578l10.39-.451a.79.79,0,1,1,.069,1.578l-10.39.451Z" transform="translate(-2716.221 -553.816)"/><path d="M2713.651,561.394a.8.8,0,0,1-.207-.027,2.054,2.054,0,0,1-1.108-1.167,5,5,0,0,1-.355-3.846,1.824,1.824,0,0,1,1.085-1.1,3.659,3.659,0,0,1,2.683.4.79.79,0,0,1-.75,1.39h0a2.3,2.3,0,0,0-1.384-.3c-.041.015-.1.038-.156.183a3.534,3.534,0,0,0,.548,2.984.79.79,0,0,1-.356,1.495Zm.206-1.552h0Z" transform="translate(-2711.731 -554.433)"/></g></g></g><g transform="translate(12.397 178.719)"><g transform="translate(1.412 31.918)"><g transform="translate(0 60.002)"><g transform="translate(0 135.167)"><g transform="translate(6.479)"><path class="d" d="M2475.959,954.78l-2.273,15.958-5.816.022-.274-15.695Z" transform="translate(-2466.807 -953.99)"/><path d="M2467.161,970.839a.79.79,0,0,1-.79-.776l-.274-15.694a.79.79,0,0,1,.763-.8l8.362-.285a.775.775,0,0,1,.615.262.793.793,0,0,1,.194.639l-2.274,15.957a.79.79,0,0,1-.779.678l-5.815.022Zm.529-15.722.247,14.139,4.353-.016,2.044-14.349Z" transform="translate(-2466.097 -953.279)"/></g><g transform="translate(0 12.121)"><path class="d" d="M2468.056,996.885a53.847,53.847,0,0,1-10.222-.059,2.8,2.8,0,0,1-2.507-3.257c.7-4.331,2.673-11.971,5.774-15.476l1.532,2.184.91-2.256c.146-.244,4-.4,4.081.053l.235,2.2,2.188-2.452-.12,8.052a12.2,12.2,0,0,0,.251,2.647l.575,2.783a5.294,5.294,0,0,1-1.253,4.7A2.535,2.535,0,0,1,2468.056,996.885Z" transform="translate(-2454.5 -977.002)"/><path d="M2462.929,997.184c-1.641,0-3.6-.073-5.874-.273a3.533,3.533,0,0,1-2.5-1.366,3.629,3.629,0,0,1-.714-2.8c.187-1.146,1.938-11.324,5.963-15.873a.79.79,0,0,1,1.238.07l.7.992.365-.907a.87.87,0,0,1,.056-.112c.56-.932,4.439-.526,4.478-.519.624.117.98.4,1.058.841,0,.018.006.036.008.054l.046.432,1-1.123a.79.79,0,0,1,1.379.538l-.12,8.051a11.439,11.439,0,0,0,.234,2.476l.575,2.783a6.079,6.079,0,0,1-1.45,5.4,3.252,3.252,0,0,1-1.936,1.124h0A42.432,42.432,0,0,1,2462.929,997.184Zm4.417-1h0Zm-6.993-17.472c-2.665,3.7-4.353,10.58-4.956,14.284a2.022,2.022,0,0,0,.4,1.582,1.968,1.968,0,0,0,1.395.761,52.625,52.625,0,0,0,10.068.06,1.872,1.872,0,0,0,.953-.634,4.5,4.5,0,0,0,1.055-4l-.575-2.783a12.966,12.966,0,0,1-.267-2.82l.089-5.933-.778.872a.789.789,0,0,1-1.374-.442l-.185-1.742a14.113,14.113,0,0,0-2.753.046l-.769,1.908a.79.79,0,0,1-1.379.158Z" transform="translate(-2453.791 -976.299)"/></g><path d="M2465.767,1008.679a34,34,0,0,1-5.872-.521.79.79,0,1,1,.274-1.555,28.589,28.589,0,0,0,9.545.194.79.79,0,0,1,.314,1.549A23.3,23.3,0,0,1,2465.767,1008.679Z" transform="translate(-2456.371 -978.52)"/><path d="M2469.714,997.516h-5.276a.79.79,0,1,1,0-1.58h5.276a.79.79,0,0,1,0,1.58Z" transform="translate(-2458.458 -973.476)"/></g><g transform="translate(55.252 135.021)"><g transform="translate(1.331)"><path class="d" d="M2562.755,956.073l2.046,18.6,7.823,1.638-.476-21.808Z" transform="translate(-2561.966 -953.712)"/><path d="M2571.915,976.389a.805.805,0,0,1-.162-.016l-7.823-1.639a.79.79,0,0,1-.623-.687l-2.046-18.6a.79.79,0,0,1,.655-.866l9.393-1.571a.79.79,0,0,1,.92.762l.477,21.808a.791.791,0,0,1-.79.807Zm-7.1-3.083,6.29,1.317-.435-19.9-7.757,1.3Z" transform="translate(-2561.255 -953.002)"/></g><g transform="translate(0 16.756)"><path class="d" d="M2560.295,998.608c-.172-3.259-.176-9.261,1.808-12.154l6.259,2.228v-1.337a.781.781,0,0,1,.7-.808l3.49-.2a7.58,7.58,0,0,1,3.79.78c3.509,1.725,14.184,6.15,15.664,11.125a2.363,2.363,0,0,1-2.241,2.979c-3.513.1-11.96.211-27.119-.307A2.436,2.436,0,0,1,2560.295,998.608Z" transform="translate(-2559.436 -985.535)"/><path d="M2582.053,1001.385c-4.662,0-11.249-.088-20.144-.393a3.208,3.208,0,0,1-3.113-3.053h0c-.178-3.4-.164-9.566,1.946-12.642a.788.788,0,0,1,.916-.3l5.2,1.852v-.217a1.57,1.57,0,0,1,1.443-1.6l3.491-.2a8.412,8.412,0,0,1,4.184.86c.417.2.936.448,1.529.726,4.592,2.155,13.14,6.164,14.543,10.882a3.035,3.035,0,0,1-.464,2.664,3.236,3.236,0,0,1-2.511,1.33C2587.57,1001.343,2585.269,1001.385,2582.053,1001.385ZM2561.736,986.7c-1.131,2.138-1.626,6.139-1.362,11.152h0a1.637,1.637,0,0,0,1.589,1.558c14.986.512,23.393.412,27.069.307a1.647,1.647,0,0,0,1.277-.677,1.451,1.451,0,0,0,.23-1.287c-1.2-4.04-9.644-8-13.7-9.9-.6-.283-1.131-.53-1.555-.739a6.824,6.824,0,0,0-3.4-.7l-3.436.2-.01,1.36a.79.79,0,0,1-1.054.744Z" transform="translate(-2558.727 -984.825)"/></g><path d="M2582.486,1008.131a149.906,149.906,0,0,1-17.028-.957.79.79,0,1,1,.182-1.569,143.852,143.852,0,0,0,24.4.731.79.79,0,1,1,.12,1.575C2590.1,1007.915,2587.155,1008.131,2582.486,1008.131Z" transform="translate(-2561.583 -977.905)"/><path d="M2588.613,994.98a.787.787,0,0,1-.461-.148l-6.025-4.333a.79.79,0,0,1,.922-1.282l6.025,4.333a.79.79,0,0,1-.462,1.431Z" transform="translate(-2569.651 -970.078)"/></g><g transform="translate(3.632)"><path d="M2516.87,704s11.214,86.2,8.825,137.55l-3.5.35a37.824,37.824,0,0,1-5.663.14l-3.318-.167s-13.374-87.273-20.051-100.225c0,0-18.16,78.637-18.86,97.428,0,0-8.073.811-11.29-.346-1.728-18.135-2.227-46.181-2.314-57.966-.247-33.728,2.976-49.049,4.743-56.317,1.622-6.674,3.364-12.1,4.635-15.765l4.247-12.112Z" transform="translate(-2460.688 -696.565)"/><path class="a" d="M2522.027,775.876a.791.791,0,0,1-.778-.929l1.042-5.8c0-.024.01-.047.016-.07a5.806,5.806,0,0,1,4.443-4.165l1.745-.361a.79.79,0,1,1,.32,1.547l-1.745.361a4.233,4.233,0,0,0-3.23,3l-1.035,5.763A.791.791,0,0,1,2522.027,775.876Z" transform="translate(-2489.356 -728.747)"/><path class="a" d="M2478.321,757.143a.79.79,0,0,1-.129-1.569c9.5-1.583,11.389-8.785,11.465-9.091a.79.79,0,0,1,1.535.374c-.084.346-2.181,8.514-12.74,10.274A.794.794,0,0,1,2478.321,757.143Z" transform="translate(-2468.664 -719.916)"/><path class="a" d="M2562.578,745.732a.781.781,0,0,1-.314-.066,9.519,9.519,0,0,1-6.1-8.742.8.8,0,0,1,.819-.759.79.79,0,0,1,.759.817,7.971,7.971,0,0,0,5.153,7.235.79.79,0,0,1-.315,1.515Z" transform="translate(-2505.892 -715.314)"/></g></g><path d="M2465.947,724.436c-1.02,3.487-2.619,8.311-.848,10.627,3.217,4.21,5.885,3.534,9.856,2.086,7.941-2.9,20.614-7.468,24.313-4.926l.164-7.787Z" transform="translate(-2458.769 -649.759)"/><path class="c" d="M2506.894,582.607a17.168,17.168,0,0,1,15.507,9.59c3.343,6.826,8.062,24.688,8.246,32.49.322,13.636-11.624,14.4-11.978,14.424a.007.007,0,0,0-.007.008c.037.394,1.432,15.21,1.542,17.841.2,4.81-8.72,12.317-18.968,8.619-10.2-3.679-38.052-11.01-40.882-4.769a.007.007,0,1,1-.014,0l11.686-43.352a.008.008,0,0,0-.008-.01l-9.593.463h0l-7.812-4.518a.008.008,0,0,1,0-.008l1.978-8.763c3.758-14.971,13.812-21.84,26.788-21.9Z" transform="translate(-2454.177 -582.607)"/><g transform="translate(3.06 21.087)"><path class="d" d="M2479.208,635.729c-1.793-.332-1.3-2.41-7.6-2.785-18.178-1.084-9.369-10.313,1.046-8.555,3.452.583,4.809,2.815,6.107,3.382C2489.654,632.525,2482.782,636.39,2479.208,635.729Z" transform="translate(-2460.312 -623.372)"/><path d="M2479.387,635.881a5.7,5.7,0,0,1-1.033-.091,3.427,3.427,0,0,1-1.727-.953c-.769-.669-1.822-1.584-5.779-1.821-6.2-.369-10-1.719-11-3.9a2.957,2.957,0,0,1,.488-3.121c1.674-2.179,6.354-4.006,11.73-3.1a10.16,10.16,0,0,1,5.143,2.6,5.856,5.856,0,0,0,1.149.837c6.029,2.63,6.727,5.033,6.252,6.585C2484.049,634.764,2481.568,635.881,2479.387,635.881Zm-10.068-11.636c-3.544,0-6.6,1.245-7.724,2.71a1.339,1.339,0,0,0-.3,1.5c.265.581,1.744,2.512,9.652,2.983,4.494.268,5.781,1.388,6.722,2.206a1.945,1.945,0,0,0,.977.591h0c1.586.294,4.082-.534,4.463-1.783.394-1.287-1.614-3.035-5.372-4.674a6.737,6.737,0,0,1-1.532-1.074,8.67,8.67,0,0,0-4.391-2.254A14.952,14.952,0,0,0,2469.319,624.245Z" transform="translate(-2459.602 -622.656)"/></g></g><g transform="translate(25.082 0)"><g transform="translate(0 13.437)"><path class="d" d="M2520.628,569.25a.921.921,0,0,0-.509-1.606l-1.233-.148a3.455,3.455,0,0,1-2.859-2.259L2514,550.243l-4.164,1.489-5.511-2.725.493,16.023a3.428,3.428,0,0,1-2.3,3.113l-1.61.576a.968.968,0,0,0-.066,1.81C2504.119,571.958,2517.45,571.969,2520.628,569.25Z" transform="translate(-2499.458 -548.217)"/><path d="M2508.16,571.545c-3.6,0-6.914-.379-8.345-1a1.758,1.758,0,0,1,.115-3.278l1.611-.576a2.623,2.623,0,0,0,1.774-2.391l-.493-15.977a.789.789,0,0,1,1.139-.732l5.21,2.576,3.849-1.376a.789.789,0,0,1,1.049.638l2.019,14.909a2.652,2.652,0,0,0,2.183,1.667l1.232.148a1.727,1.727,0,0,1,1.445,1.214,1.671,1.671,0,0,1-.518,1.777h0C2518.428,570.853,2513.028,571.545,2508.16,571.545Zm-3.718-21.957.451,14.707a4.2,4.2,0,0,1-2.821,3.881l-1.611.576a.181.181,0,0,0-.136.17.173.173,0,0,0,.121.173c3.292,1.436,16.138,1.257,18.957-1.155h0a.1.1,0,0,0,.033-.118.138.138,0,0,0-.122-.1l-1.232-.148a4.218,4.218,0,0,1-3.51-2.78.8.8,0,0,1-.038-.157l-1.9-14.029-3.247,1.16a.788.788,0,0,1-.616-.036Z" transform="translate(-2498.747 -547.507)"/></g><g transform="translate(3.276 1.616)"><path class="d" d="M2518.792,527.687c7.1,2.613,5.876,7.2,5.876,7.2a19.431,19.431,0,0,0,.1,4.414c.194.692,1.328,1.993,1.382,2.378s-.56,1.173-1.788,1.453c0,0-.467,6.137-2.076,7.142s-7.8-.924-7.8-.924l-1.042-.418a10.926,10.926,0,0,1-6.385-7.609S2502.531,521.7,2518.792,527.687Z" transform="translate(-2505.68 -525.764)"/><path d="M2520.014,550.646a25.752,25.752,0,0,1-6.484-1.245l-.059-.021-1.042-.418a11.686,11.686,0,0,1-6.852-8.128c-.1-.448-2.272-10.137,2.258-14.128,2.306-2.031,5.844-2.187,10.517-.468h0c7.093,2.612,6.526,7.3,6.388,8.048a18.984,18.984,0,0,0,.071,4.1,6.593,6.593,0,0,0,.7,1.17,3.484,3.484,0,0,1,.7,1.31c.1.73-.562,1.689-1.829,2.164-.184,1.944-.766,6.192-2.4,7.211A3.848,3.848,0,0,1,2520.014,550.646Zm-5.984-2.744c2.809.871,6.321,1.5,7.12,1,.784-.49,1.5-3.772,1.706-6.533a.79.79,0,0,1,.612-.71,2.012,2.012,0,0,0,1.132-.622c-.1-.162-.267-.41-.389-.588a6.428,6.428,0,0,1-.921-1.637,21.56,21.56,0,0,1-.124-4.682.866.866,0,0,1,.025-.148c.038-.153.891-3.949-5.385-6.26-4.087-1.5-7.091-1.447-8.927.17-3.832,3.376-1.793,12.46-1.772,12.551a10.147,10.147,0,0,0,5.91,7.054Z" transform="translate(-2504.968 -525.055)"/></g><path d="M2514.4,522.2c1.866.455,3.689,1.62,4.654,1.723,1.554.166,2.676-1.829,4.64-1.1a4.574,4.574,0,0,1,2.943,3.762,3.728,3.728,0,0,1,.025.881c-.364,4.188-2.985,5.077-4.049,5.267,0,0-6.161-.57-7.364-.279-1.124.273-2.862,2.022-3.385,4.509a.743.743,0,0,1-.676.58h0a.75.75,0,0,1-.8-.615c-.206-1.195-.769-3.581-1.981-3.651-1.414-.082-3.215,2.713-1.366,4.465a1.109,1.109,0,0,1-.349,1.814,2.061,2.061,0,0,1-2.184-.406s-3.647-6.395-1.908-11.792S2511.915,521.6,2514.4,522.2Z" transform="translate(-2500.348 -521.987)"/><g transform="translate(10.034 10.78)"><path d="M2541.946,549.625a.789.789,0,0,1-.537-1.368,3.163,3.163,0,0,0,.645-1.968,2.867,2.867,0,0,0-.484-2.071,2.258,2.258,0,0,0-.618,1.345.79.79,0,0,1-1.552-.3c.316-1.656,1.2-2.692,2.25-2.639a1.894,1.894,0,0,1,1.62,1.364,5.518,5.518,0,0,1,.361,2.379,4.557,4.557,0,0,1-1.147,3.044A.79.79,0,0,1,2541.946,549.625Z" transform="translate(-2528.022 -542.539)"/><path d="M2532.774,549.955l-.1,0a2.366,2.366,0,0,1-1.9-1.339,4.813,4.813,0,0,1-.526-2.539h0c.109-2.1,1.346-3.682,2.816-3.61a2.367,2.367,0,0,1,1.9,1.34,4.813,4.813,0,0,1,.527,2.539C2535.384,548.394,2534.2,549.955,2532.774,549.955Zm-.953-3.8a3.269,3.269,0,0,0,.332,1.7c.175.318.4.515.6.524.424.019,1.09-.791,1.158-2.114a3.269,3.269,0,0,0-.332-1.7c-.175-.319-.4-.514-.6-.525-.422-.018-1.089.791-1.158,2.114Z" transform="translate(-2523.69 -542.461)"/><path d="M2525.366,546.462l-.072,0-6.771-.607a.79.79,0,1,1,.141-1.573l6.771.607a.79.79,0,0,1-.07,1.576Z" transform="translate(-2517.804 -543.32)"/></g></g><g transform="translate(31.094 22.804)"><path class="d" d="M2511.665,585.943s2.636,4.135,5.011,3.406c1.248-.384,2.465-4.463,2.963-4.608a9.692,9.692,0,0,0,6.485-4.545c1.739-3.106,1.359-4.765.911-5.528a1.051,1.051,0,0,1,.026-1.125,2.064,2.064,0,0,0,.319-2,1.063,1.063,0,0,1,.009-.845c.441-1.029,1.26-3.4-.331-3.862a1.063,1.063,0,0,0-1.158.4,11.492,11.492,0,0,1-2.862,2.838c-1.842,1.172-2.946,1.973-3.872,2.5-.793.452-1.211-3.5-3.116-4.992-1.691-1.319-2.268-.652-2.436-.032s.878.866,1.475,3.816a21.067,21.067,0,0,1-.244,7.91C2514.6,581.1,2511.665,585.943,2511.665,585.943Z" transform="translate(-2510.875 -566.007)"/><path d="M2515.381,589.516c-2.552,0-4.818-3.429-5.093-3.858a.79.79,0,0,1-.009-.833c.792-1.309,2.887-5,3.073-6.364.035-.258.084-.552.139-.878a17.983,17.983,0,0,0,.114-6.769,6.941,6.941,0,0,0-1.093-2.786,1.618,1.618,0,0,1-.37-1.393,1.69,1.69,0,0,1,1.076-1.231c.718-.239,1.571.038,2.609.847a8.858,8.858,0,0,1,2.324,3.812c.107.273.238.608.352.856.392-.243.833-.537,1.353-.882.573-.381,1.24-.824,2.049-1.338a10.659,10.659,0,0,0,2.646-2.634,1.855,1.855,0,0,1,2.021-.691,1.971,1.971,0,0,1,1.272,1.068c.528,1.12.053,2.719-.439,3.864a.283.283,0,0,0-.011.216,2.81,2.81,0,0,1-.389,2.757.262.262,0,0,0,0,.281c.615,1.046.958,2.99-.9,6.314a10.291,10.291,0,0,1-6.756,4.86l-.008,0c-.14.227-.377.74-.559,1.13-.868,1.868-1.562,3.215-2.583,3.529A2.764,2.764,0,0,1,2515.381,589.516Zm-3.49-4.312c.809,1.115,2.551,3.077,3.842,2.68.445-.169,1.265-1.932,1.615-2.685.564-1.215.822-1.769,1.359-1.926l.2-.058a8.769,8.769,0,0,0,5.815-4.115c1.632-2.915,1.187-4.286.92-4.741a1.851,1.851,0,0,1,.052-1.968,1.274,1.274,0,0,0,.25-1.237,1.86,1.86,0,0,1,.006-1.474,3.981,3.981,0,0,0,.461-2.567.4.4,0,0,0-.288-.225.279.279,0,0,0-.3.1,12.241,12.241,0,0,1-3.077,3.04c-.8.508-1.457.946-2.022,1.322-.746.5-1.337.888-1.882,1.2a1.016,1.016,0,0,1-.854.081c-.618-.219-.9-.925-1.314-1.993a7.756,7.756,0,0,0-1.826-3.143c-.824-.643-1.136-.593-1.14-.593h0c.006,0,0,.016-.016.05.034.058.086.137.131.2a8.429,8.429,0,0,1,1.323,3.343,19.356,19.356,0,0,1-.1,7.343c-.052.309-.1.588-.132.831C2514.692,580.329,2512.658,583.9,2511.891,585.2Z" transform="translate(-2510.165 -565.296)"/></g><path class="c" d="M2491.681,602.06l-7.985-5.088s-10.793,17.452-18.968,23.376c-3.979,2.884-11.7-.506-11.7-.506s-7.411,28.485,6.894,32.557C2483.755,659.181,2491.681,602.06,2491.681,602.06Z" transform="translate(-2451.11 -557.49)"/><g transform="translate(10.542 38.552)"><path class="a" d="M2545.725,678.357c-9.065,0-21.719-6.977-30.913-13.825a.79.79,0,1,1,.944-1.266c9.109,6.785,22.829,14.378,31.508,13.432a.79.79,0,1,1,.171,1.57A15.747,15.747,0,0,1,2545.725,678.357Z" transform="translate(-2491.662 -627.356)"/><path class="a" d="M2537.132,638.794c-5.131,0-14.4-4.341-14.836-4.545a.79.79,0,0,1,.673-1.429c3.115,1.469,11.924,5.1,15.255,4.285,6.589-1.614,5.054-9.9,4.985-10.252a.79.79,0,1,1,1.551-.3c.68,3.492.269,10.514-6.16,12.089A6.238,6.238,0,0,1,2537.132,638.794Z" transform="translate(-2495.141 -609.745)"/><path class="a" d="M2474.937,621.131a.79.79,0,0,1-.473-1.422c8.531-6.376,19.146-23.943,19.253-24.12a.79.79,0,1,1,1.353.814c-.44.732-10.883,18.011-19.66,24.57A.786.786,0,0,1,2474.937,621.131Z" transform="translate(-2472.559 -595.206)"/><path class="a" d="M2472.826,655.9c-.323,0-.646-.014-.973-.042a.79.79,0,0,1,.136-1.574c17.47,1.5,27.2-44.521,28.293-49.972l-3.027-1.927a.79.79,0,0,1,.848-1.333l3.481,2.217a.79.79,0,0,1,.352.811C2501.537,606.225,2492.059,655.9,2472.826,655.9Z" transform="translate(-2471.131 -597.914)"/></g></g></g><g transform="translate(1345.067 957.064)"><text class="f" transform="translate(-0.066 40.166)"><tspan x="0" y="0">FOR RENT</tspan></text><text class="g" transform="translate(-0.066 17.166)"><tspan x="0" y="0">AVAILABLE</tspan></text></g></g></svg>